<svg width="254" height="88" viewBox="0 0 254 88" fill="none" xmlns="http://www.w3.org/2000/svg">
<mask id="path-1-outside-1_2_2" maskUnits="userSpaceOnUse" x="3" y="16" width="39" height="55" fill="black">
<rect fill="white" x="3" y="16" width="39" height="55"/>
<path d="M4.60227 70V65.3977L32.8295 23.2614H4.29545V17.6364H40.3977V22.2386L12.1705 64.375H40.7045V70H4.60227Z"/>
</mask>
<path d="M4.60227 70V65.3977L32.8295 23.2614H4.29545V17.6364H40.3977V22.2386L12.1705 64.375H40.7045V70H4.60227Z" fill="#3306E8"/>
<path d="M4.60227 70H3.60227V71H4.60227V70ZM4.60227 65.3977L3.77147 64.8412L3.60227 65.0937V65.3977H4.60227ZM32.8295 23.2614L33.6604 23.8179L34.7031 22.2614H32.8295V23.2614ZM4.29545 23.2614H3.29545V24.2614H4.29545V23.2614ZM4.29545 17.6364V16.6364H3.29545V17.6364H4.29545ZM40.3977 17.6364H41.3977V16.6364H40.3977V17.6364ZM40.3977 22.2386L41.2285 22.7952L41.3977 22.5426V22.2386H40.3977ZM12.1705 64.375L11.3396 63.8184L10.2969 65.375H12.1705V64.375ZM40.7045 64.375H41.7045V63.375H40.7045V64.375ZM40.7045 70V71H41.7045V70H40.7045ZM4.60227 70H5.60227V65.3977H4.60227H3.60227V70H4.60227ZM4.60227 65.3977L5.43308 65.9543L33.6604 23.8179L32.8295 23.2614L31.9987 22.7048L3.77147 64.8412L4.60227 65.3977ZM32.8295 23.2614V22.2614H4.29545V23.2614V24.2614H32.8295V23.2614ZM4.29545 23.2614H5.29545V17.6364H4.29545H3.29545V23.2614H4.29545ZM4.29545 17.6364V18.6364H40.3977V17.6364V16.6364H4.29545V17.6364ZM40.3977 17.6364H39.3977V22.2386H40.3977H41.3977V17.6364H40.3977ZM40.3977 22.2386L39.5669 21.6821L11.3396 63.8184L12.1705 64.375L13.0013 64.9316L41.2285 22.7952L40.3977 22.2386ZM12.1705 64.375V65.375H40.7045V64.375V63.375H12.1705V64.375ZM40.7045 64.375H39.7045V70H40.7045H41.7045V64.375H40.7045ZM40.7045 70V69H4.60227V70V71H40.7045V70Z" fill="#3306E8" mask="url(#path-1-outside-1_2_2)"/>
<mask id="path-3-outside-2_2_2" maskUnits="userSpaceOnUse" x="35" y="28" width="157" height="30" fill="black">
<rect fill="white" x="35" y="28" width="157" height="30"/>
<path d="M40.2443 56H36.9205L46.5341 29.8182H49.8068L59.4205 56H56.0966L48.2727 33.9602H48.0682L40.2443 56ZM41.4716 45.7727H54.8693V48.5852H41.4716V45.7727ZM77.8168 36.3636C77.6634 35.0682 77.0412 34.0625 75.9503 33.3466C74.8594 32.6307 73.5213 32.2727 71.9361 32.2727C70.777 32.2727 69.7628 32.4602 68.8935 32.8352C68.0327 33.2102 67.3594 33.7259 66.8736 34.3821C66.3963 35.0384 66.1577 35.7841 66.1577 36.6193C66.1577 37.3182 66.3239 37.919 66.6562 38.4219C66.9972 38.9162 67.4318 39.3295 67.9602 39.6619C68.4886 39.9858 69.0426 40.2543 69.6222 40.4673C70.2017 40.6719 70.7344 40.8381 71.2202 40.9659L73.8793 41.6818C74.5611 41.8608 75.3196 42.108 76.1548 42.4233C76.9986 42.7386 77.804 43.169 78.571 43.7145C79.3466 44.2514 79.9858 44.9418 80.4886 45.7855C80.9915 46.6293 81.2429 47.6648 81.2429 48.892C81.2429 50.3068 80.8722 51.5852 80.1307 52.7273C79.3977 53.8693 78.3239 54.777 76.9091 55.4503C75.5028 56.1236 73.794 56.4602 71.7827 56.4602C69.9077 56.4602 68.2841 56.1577 66.9119 55.5526C65.5483 54.9474 64.4744 54.1037 63.6903 53.0213C62.9148 51.9389 62.4759 50.6818 62.3736 49.25H65.6463C65.7315 50.2386 66.0639 51.0568 66.6435 51.7045C67.2315 52.3437 67.973 52.821 68.8679 53.1364C69.7713 53.4432 70.7429 53.5966 71.7827 53.5966C72.9929 53.5966 74.0795 53.4006 75.0426 53.0085C76.0057 52.608 76.7685 52.054 77.331 51.3466C77.8935 50.6307 78.1747 49.7955 78.1747 48.8409C78.1747 47.9716 77.9318 47.2642 77.446 46.7188C76.9602 46.1733 76.321 45.7301 75.5284 45.3892C74.7358 45.0483 73.8793 44.75 72.9588 44.4943L69.7372 43.5739C67.6918 42.9858 66.0724 42.1463 64.8793 41.0554C63.6861 39.9645 63.0895 38.5369 63.0895 36.7727C63.0895 35.3068 63.4858 34.0284 64.2784 32.9375C65.0795 31.8381 66.1534 30.9858 67.5 30.3807C68.8551 29.767 70.3679 29.4602 72.0384 29.4602C73.7259 29.4602 75.2259 29.7628 76.5384 30.3679C77.8509 30.9645 78.8906 31.7827 79.6577 32.8224C80.4332 33.8622 80.8423 35.0426 80.8849 36.3636H77.8168ZM97.2965 41.5028V44.3153H85.842V41.5028H97.2965ZM98.9105 32.6307V29.8182H118.547V32.6307H110.314V56H107.143V32.6307H98.9105ZM123.44 56V29.8182H132.287C134.332 29.8182 136.011 30.1676 137.324 30.8665C138.636 31.5568 139.608 32.5071 140.238 33.7173C140.869 34.9276 141.184 36.304 141.184 37.8466C141.184 39.3892 140.869 40.7571 140.238 41.9503C139.608 43.1435 138.64 44.081 137.336 44.7628C136.032 45.4361 134.366 45.7727 132.338 45.7727H125.179V42.9091H132.235C133.633 42.9091 134.758 42.7045 135.61 42.2955C136.471 41.8864 137.093 41.3068 137.477 40.5568C137.869 39.7983 138.065 38.8949 138.065 37.8466C138.065 36.7983 137.869 35.8821 137.477 35.098C137.085 34.3139 136.458 33.7088 135.598 33.2827C134.737 32.848 133.599 32.6307 132.184 32.6307H126.61V56H123.44ZM135.764 44.2386L142.207 56H138.525L132.184 44.2386H135.764ZM147.541 56H144.217L153.831 29.8182H157.104L166.717 56H163.393L155.57 33.9602H155.365L147.541 56ZM148.768 45.7727H162.166V48.5852H148.768V45.7727ZM190.633 38H187.463C187.275 37.0881 186.947 36.2869 186.478 35.5966C186.018 34.9062 185.456 34.3267 184.791 33.858C184.135 33.3807 183.406 33.0227 182.605 32.7841C181.804 32.5455 180.968 32.4261 180.099 32.4261C178.514 32.4261 177.078 32.8267 175.791 33.6278C174.512 34.429 173.494 35.6094 172.735 37.169C171.985 38.7287 171.61 40.642 171.61 42.9091C171.61 45.1761 171.985 47.0895 172.735 48.6491C173.494 50.2088 174.512 51.3892 175.791 52.1903C177.078 52.9915 178.514 53.392 180.099 53.392C180.968 53.392 181.804 53.2727 182.605 53.0341C183.406 52.7955 184.135 52.4418 184.791 51.973C185.456 51.4957 186.018 50.9119 186.478 50.2216C186.947 49.5227 187.275 48.7216 187.463 47.8182H190.633C190.395 49.1562 189.96 50.3537 189.329 51.4105C188.699 52.4673 187.914 53.3665 186.977 54.108C186.039 54.8409 184.987 55.3991 183.819 55.7827C182.66 56.1662 181.42 56.358 180.099 56.358C177.866 56.358 175.88 55.8125 174.142 54.7216C172.403 53.6307 171.035 52.0795 170.038 50.0682C169.041 48.0568 168.542 45.6705 168.542 42.9091C168.542 40.1477 169.041 37.7614 170.038 35.75C171.035 33.7386 172.403 32.1875 174.142 31.0966C175.88 30.0057 177.866 29.4602 180.099 29.4602C181.42 29.4602 182.66 29.652 183.819 30.0355C184.987 30.419 186.039 30.9815 186.977 31.723C187.914 32.456 188.699 33.3509 189.329 34.4077C189.96 35.456 190.395 36.6534 190.633 38Z"/>
</mask>
<path d="M40.2443 56H36.9205L46.5341 29.8182H49.8068L59.4205 56H56.0966L48.2727 33.9602H48.0682L40.2443 56ZM41.4716 45.7727H54.8693V48.5852H41.4716V45.7727ZM77.8168 36.3636C77.6634 35.0682 77.0412 34.0625 75.9503 33.3466C74.8594 32.6307 73.5213 32.2727 71.9361 32.2727C70.777 32.2727 69.7628 32.4602 68.8935 32.8352C68.0327 33.2102 67.3594 33.7259 66.8736 34.3821C66.3963 35.0384 66.1577 35.7841 66.1577 36.6193C66.1577 37.3182 66.3239 37.919 66.6562 38.4219C66.9972 38.9162 67.4318 39.3295 67.9602 39.6619C68.4886 39.9858 69.0426 40.2543 69.6222 40.4673C70.2017 40.6719 70.7344 40.8381 71.2202 40.9659L73.8793 41.6818C74.5611 41.8608 75.3196 42.108 76.1548 42.4233C76.9986 42.7386 77.804 43.169 78.571 43.7145C79.3466 44.2514 79.9858 44.9418 80.4886 45.7855C80.9915 46.6293 81.2429 47.6648 81.2429 48.892C81.2429 50.3068 80.8722 51.5852 80.1307 52.7273C79.3977 53.8693 78.3239 54.777 76.9091 55.4503C75.5028 56.1236 73.794 56.4602 71.7827 56.4602C69.9077 56.4602 68.2841 56.1577 66.9119 55.5526C65.5483 54.9474 64.4744 54.1037 63.6903 53.0213C62.9148 51.9389 62.4759 50.6818 62.3736 49.25H65.6463C65.7315 50.2386 66.0639 51.0568 66.6435 51.7045C67.2315 52.3437 67.973 52.821 68.8679 53.1364C69.7713 53.4432 70.7429 53.5966 71.7827 53.5966C72.9929 53.5966 74.0795 53.4006 75.0426 53.0085C76.0057 52.608 76.7685 52.054 77.331 51.3466C77.8935 50.6307 78.1747 49.7955 78.1747 48.8409C78.1747 47.9716 77.9318 47.2642 77.446 46.7188C76.9602 46.1733 76.321 45.7301 75.5284 45.3892C74.7358 45.0483 73.8793 44.75 72.9588 44.4943L69.7372 43.5739C67.6918 42.9858 66.0724 42.1463 64.8793 41.0554C63.6861 39.9645 63.0895 38.5369 63.0895 36.7727C63.0895 35.3068 63.4858 34.0284 64.2784 32.9375C65.0795 31.8381 66.1534 30.9858 67.5 30.3807C68.8551 29.767 70.3679 29.4602 72.0384 29.4602C73.7259 29.4602 75.2259 29.7628 76.5384 30.3679C77.8509 30.9645 78.8906 31.7827 79.6577 32.8224C80.4332 33.8622 80.8423 35.0426 80.8849 36.3636H77.8168ZM97.2965 41.5028V44.3153H85.842V41.5028H97.2965ZM98.9105 32.6307V29.8182H118.547V32.6307H110.314V56H107.143V32.6307H98.9105ZM123.44 56V29.8182H132.287C134.332 29.8182 136.011 30.1676 137.324 30.8665C138.636 31.5568 139.608 32.5071 140.238 33.7173C140.869 34.9276 141.184 36.304 141.184 37.8466C141.184 39.3892 140.869 40.7571 140.238 41.9503C139.608 43.1435 138.64 44.081 137.336 44.7628C136.032 45.4361 134.366 45.7727 132.338 45.7727H125.179V42.9091H132.235C133.633 42.9091 134.758 42.7045 135.61 42.2955C136.471 41.8864 137.093 41.3068 137.477 40.5568C137.869 39.7983 138.065 38.8949 138.065 37.8466C138.065 36.7983 137.869 35.8821 137.477 35.098C137.085 34.3139 136.458 33.7088 135.598 33.2827C134.737 32.848 133.599 32.6307 132.184 32.6307H126.61V56H123.44ZM135.764 44.2386L142.207 56H138.525L132.184 44.2386H135.764ZM147.541 56H144.217L153.831 29.8182H157.104L166.717 56H163.393L155.57 33.9602H155.365L147.541 56ZM148.768 45.7727H162.166V48.5852H148.768V45.7727ZM190.633 38H187.463C187.275 37.0881 186.947 36.2869 186.478 35.5966C186.018 34.9062 185.456 34.3267 184.791 33.858C184.135 33.3807 183.406 33.0227 182.605 32.7841C181.804 32.5455 180.968 32.4261 180.099 32.4261C178.514 32.4261 177.078 32.8267 175.791 33.6278C174.512 34.429 173.494 35.6094 172.735 37.169C171.985 38.7287 171.61 40.642 171.61 42.9091C171.61 45.1761 171.985 47.0895 172.735 48.6491C173.494 50.2088 174.512 51.3892 175.791 52.1903C177.078 52.9915 178.514 53.392 180.099 53.392C180.968 53.392 181.804 53.2727 182.605 53.0341C183.406 52.7955 184.135 52.4418 184.791 51.973C185.456 51.4957 186.018 50.9119 186.478 50.2216C186.947 49.5227 187.275 48.7216 187.463 47.8182H190.633C190.395 49.1562 189.96 50.3537 189.329 51.4105C188.699 52.4673 187.914 53.3665 186.977 54.108C186.039 54.8409 184.987 55.3991 183.819 55.7827C182.66 56.1662 181.42 56.358 180.099 56.358C177.866 56.358 175.88 55.8125 174.142 54.7216C172.403 53.6307 171.035 52.0795 170.038 50.0682C169.041 48.0568 168.542 45.6705 168.542 42.9091C168.542 40.1477 169.041 37.7614 170.038 35.75C171.035 33.7386 172.403 32.1875 174.142 31.0966C175.88 30.0057 177.866 29.4602 180.099 29.4602C181.42 29.4602 182.66 29.652 183.819 30.0355C184.987 30.419 186.039 30.9815 186.977 31.723C187.914 32.456 188.699 33.3509 189.329 34.4077C189.96 35.456 190.395 36.6534 190.633 38Z" fill="#3B2CF2"/>
<path d="M40.2443 56V57H40.9505L41.1867 56.3345L40.2443 56ZM36.9205 56L35.9817 55.6553L35.488 57H36.9205V56ZM46.5341 29.8182V28.8182H45.836L45.5954 29.4735L46.5341 29.8182ZM49.8068 29.8182L50.7455 29.4735L50.5049 28.8182H49.8068V29.8182ZM59.4205 56V57H60.8529L60.3592 55.6553L59.4205 56ZM56.0966 56L55.1542 56.3345L55.3904 57H56.0966V56ZM48.2727 33.9602L49.2151 33.6257L48.9789 32.9602H48.2727V33.9602ZM48.0682 33.9602V32.9602H47.362L47.1258 33.6257L48.0682 33.9602ZM41.4716 45.7727V44.7727H40.4716V45.7727H41.4716ZM54.8693 45.7727H55.8693V44.7727H54.8693V45.7727ZM54.8693 48.5852V49.5852H55.8693V48.5852H54.8693ZM41.4716 48.5852H40.4716V49.5852H41.4716V48.5852ZM40.2443 56V55H36.9205V56V57H40.2443V56ZM36.9205 56L37.8592 56.3447L47.4728 30.1629L46.5341 29.8182L45.5954 29.4735L35.9817 55.6553L36.9205 56ZM46.5341 29.8182V30.8182H49.8068V29.8182V28.8182H46.5341V29.8182ZM49.8068 29.8182L48.8681 30.1629L58.4817 56.3447L59.4205 56L60.3592 55.6553L50.7455 29.4735L49.8068 29.8182ZM59.4205 56V55H56.0966V56V57H59.4205V56ZM56.0966 56L57.039 55.6655L49.2151 33.6257L48.2727 33.9602L47.3303 34.2948L55.1542 56.3345L56.0966 56ZM48.2727 33.9602V32.9602H48.0682V33.9602V34.9602H48.2727V33.9602ZM48.0682 33.9602L47.1258 33.6257L39.3019 55.6655L40.2443 56L41.1867 56.3345L49.0106 34.2948L48.0682 33.9602ZM41.4716 45.7727V46.7727H54.8693V45.7727V44.7727H41.4716V45.7727ZM54.8693 45.7727H53.8693V48.5852H54.8693H55.8693V45.7727H54.8693ZM54.8693 48.5852V47.5852H41.4716V48.5852V49.5852H54.8693V48.5852ZM41.4716 48.5852H42.4716V45.7727H41.4716H40.4716V48.5852H41.4716ZM77.8168 36.3636L76.8237 36.4812L76.9282 37.3636H77.8168V36.3636ZM75.9503 33.3466L75.4016 34.1826V34.1826L75.9503 33.3466ZM68.8935 32.8352L68.4974 31.917L68.4941 31.9184L68.8935 32.8352ZM66.8736 34.3821L66.0698 33.7871L66.0648 33.7939L66.8736 34.3821ZM66.6562 38.4219L65.822 38.9733L65.8275 38.9815L65.833 38.9896L66.6562 38.4219ZM67.9602 39.6619L67.4277 40.5084L67.4377 40.5145L67.9602 39.6619ZM69.6222 40.4673L69.2771 41.406L69.2893 41.4103L69.6222 40.4673ZM71.2202 40.9659L71.4801 40.0003L71.4747 39.9988L71.2202 40.9659ZM73.8793 41.6818L73.6193 42.6475L73.6254 42.649L73.8793 41.6818ZM76.1548 42.4233L75.8016 43.3588L75.8047 43.36L76.1548 42.4233ZM78.571 43.7145L77.9915 44.5295L78.0018 44.5367L78.571 43.7145ZM80.4886 45.7855L81.3477 45.2736V45.2736L80.4886 45.7855ZM80.1307 52.7273L79.2919 52.1827L79.2891 52.1871L80.1307 52.7273ZM76.9091 55.4503L76.4794 54.5473L76.4772 54.5483L76.9091 55.4503ZM66.9119 55.5526L66.5063 56.4666L66.5084 56.4675L66.9119 55.5526ZM63.6903 53.0213L62.8775 53.6038L62.8805 53.608L63.6903 53.0213ZM62.3736 49.25V48.25H61.2996L61.3761 49.3212L62.3736 49.25ZM65.6463 49.25L66.6426 49.1641L66.5638 48.25H65.6463V49.25ZM66.6435 51.7045L65.8982 52.3714L65.9075 52.3816L66.6435 51.7045ZM68.8679 53.1364L68.5355 54.0796L68.5463 54.0832L68.8679 53.1364ZM75.0426 53.0085L75.4197 53.9347L75.4267 53.9318L75.0426 53.0085ZM77.331 51.3466L78.1137 51.969L78.1173 51.9644L77.331 51.3466ZM77.446 46.7188L78.1928 46.0537V46.0537L77.446 46.7188ZM75.5284 45.3892L75.1333 46.3078H75.1333L75.5284 45.3892ZM72.9588 44.4943L72.6841 45.4559L72.6912 45.4578L72.9588 44.4943ZM69.7372 43.5739L69.4609 44.5349L69.4625 44.5354L69.7372 43.5739ZM64.8793 41.0554L64.2045 41.7934V41.7934L64.8793 41.0554ZM64.2784 32.9375L63.4702 32.3486L63.4694 32.3497L64.2784 32.9375ZM67.5 30.3807L67.9099 31.2928L67.9125 31.2916L67.5 30.3807ZM76.5384 30.3679L76.1197 31.276L76.1245 31.2783L76.5384 30.3679ZM79.6577 32.8224L78.8529 33.4161L78.8561 33.4203L79.6577 32.8224ZM80.8849 36.3636V37.3636H81.9177L81.8844 36.3314L80.8849 36.3636ZM77.8168 36.3636L78.8098 36.246C78.6217 34.6571 77.8368 33.3885 76.4989 32.5105L75.9503 33.3466L75.4016 34.1826C76.2456 34.7365 76.705 35.4792 76.8237 36.4812L77.8168 36.3636ZM75.9503 33.3466L76.4989 32.5105C75.213 31.6666 73.674 31.2727 71.9361 31.2727V32.2727V33.2727C73.3686 33.2727 74.5058 33.5947 75.4016 34.1826L75.9503 33.3466ZM71.9361 32.2727V31.2727C70.6705 31.2727 69.5165 31.4774 68.4974 31.917L68.8935 32.8352L69.2896 33.7534C70.0091 33.4431 70.8834 33.2727 71.9361 33.2727V32.2727ZM68.8935 32.8352L68.4941 31.9184C67.4971 32.3528 66.6747 32.9701 66.0698 33.7871L66.8736 34.3821L67.6773 34.9771C68.0441 34.4816 68.5683 34.0677 69.2929 33.752L68.8935 32.8352ZM66.8736 34.3821L66.0648 33.7939C65.4594 34.6264 65.1577 35.5794 65.1577 36.6193H66.1577H67.1577C67.1577 35.9888 67.3332 35.4503 67.6823 34.9703L66.8736 34.3821ZM66.1577 36.6193H65.1577C65.1577 37.4822 65.3651 38.2821 65.822 38.9733L66.6562 38.4219L67.4905 37.8704C67.2826 37.556 67.1577 37.1541 67.1577 36.6193H66.1577ZM66.6562 38.4219L65.833 38.9896C66.254 39.6 66.7892 40.1067 67.4278 40.5084L67.9602 39.6619L68.4927 38.8155C68.0744 38.5524 67.7403 38.2324 67.4795 37.8541L66.6562 38.4219ZM67.9602 39.6619L67.4377 40.5145C68.0221 40.8727 68.6355 41.17 69.2771 41.4059L69.6222 40.4673L69.9672 39.5287C69.4498 39.3385 68.9552 39.0989 68.4828 38.8093L67.9602 39.6619ZM69.6222 40.4673L69.2893 41.4103C69.8892 41.622 70.4484 41.7969 70.9657 41.933L71.2202 40.9659L71.4747 39.9988C71.0203 39.8793 70.5142 39.7217 69.955 39.5243L69.6222 40.4673ZM71.2202 40.9659L70.9602 41.9315L73.6193 42.6474L73.8793 41.6818L74.1392 40.7162L71.4801 40.0003L71.2202 40.9659ZM73.8793 41.6818L73.6254 42.649C74.2661 42.8172 74.9908 43.0527 75.8016 43.3588L76.1548 42.4233L76.508 41.4878C75.6484 41.1632 74.8561 40.9044 74.1332 40.7146L73.8793 41.6818ZM76.1548 42.4233L75.8047 43.36C76.5635 43.6436 77.2921 44.0321 77.9915 44.5294L78.571 43.7145L79.1505 42.8995C78.3158 42.306 77.4337 41.8337 76.5049 41.4866L76.1548 42.4233ZM78.571 43.7145L78.0018 44.5367C78.6548 44.9888 79.197 45.5715 79.6296 46.2975L80.4886 45.7855L81.3477 45.2736C80.7746 44.312 80.0384 43.5141 79.1402 42.8923L78.571 43.7145ZM80.4886 45.7855L79.6296 46.2975C80.0198 46.9521 80.2429 47.8004 80.2429 48.892H81.2429H82.2429C82.2429 47.5291 81.9632 46.3064 81.3477 45.2736L80.4886 45.7855ZM81.2429 48.892H80.2429C80.2429 50.1215 79.9239 51.2093 79.292 52.1827L80.1307 52.7273L80.9694 53.2718C81.8204 51.9611 82.2429 50.4921 82.2429 48.892H81.2429ZM80.1307 52.7273L79.2891 52.1871C78.6717 53.1492 77.7523 53.9416 76.4794 54.5473L76.9091 55.4503L77.3388 56.3532C78.8955 55.6124 80.1238 54.5895 80.9723 53.2674L80.1307 52.7273ZM76.9091 55.4503L76.4772 54.5483C75.239 55.1412 73.6864 55.4602 71.7827 55.4602V56.4602V57.4602C73.9017 57.4602 75.7667 57.106 77.3409 56.3522L76.9091 55.4503ZM71.7827 56.4602V55.4602C70.0129 55.4602 68.5329 55.1745 67.3154 54.6376L66.9119 55.5526L66.5084 56.4675C68.0353 57.1409 69.8024 57.4602 71.7827 57.4602V56.4602ZM66.9119 55.5526L67.3175 54.6385C66.096 54.0964 65.1691 53.3581 64.5002 52.4347L63.6903 53.0213L62.8805 53.608C63.7797 54.8493 65.0006 55.7984 66.5063 56.4666L66.9119 55.5526ZM63.6903 53.0213L64.5032 52.4389C63.8436 51.5183 63.4612 50.4413 63.371 49.1788L62.3736 49.25L61.3761 49.3212C61.4905 50.9223 61.986 52.3596 62.8775 53.6038L63.6903 53.0213ZM62.3736 49.25V50.25H65.6463V49.25V48.25H62.3736V49.25ZM65.6463 49.25L64.65 49.3359C64.7511 50.5083 65.1543 51.5399 65.8982 52.3713L66.6435 51.7045L67.3887 51.0378C66.9735 50.5737 66.712 49.969 66.6426 49.1641L65.6463 49.25ZM66.6435 51.7045L65.9075 52.3816C66.6164 53.1521 67.501 53.715 68.5355 54.0795L68.8679 53.1364L69.2002 52.1932C68.4451 51.9271 67.8467 51.5354 67.3794 51.0275L66.6435 51.7045ZM68.8679 53.1364L68.5463 54.0832C69.5622 54.4283 70.6433 54.5966 71.7827 54.5966V53.5966V52.5966C70.8425 52.5966 69.9804 52.4581 69.1895 52.1895L68.8679 53.1364ZM71.7827 53.5966V54.5966C73.1013 54.5966 74.3189 54.3828 75.4197 53.9347L75.0426 53.0085L74.6656 52.0823C73.8402 52.4183 72.8845 52.5966 71.7827 52.5966V53.5966ZM75.0426 53.0085L75.4267 53.9318C76.5216 53.4764 77.4306 52.828 78.1137 51.969L77.331 51.3466L76.5483 50.7242C76.1063 51.28 75.4897 51.7395 74.6586 52.0852L75.0426 53.0085ZM77.331 51.3466L78.1173 51.9644C78.8253 51.0634 79.1747 50.0078 79.1747 48.8409H78.1747H77.1747C77.1747 49.5831 76.9617 50.198 76.5446 50.7288L77.331 51.3466ZM78.1747 48.8409H79.1747C79.1747 47.7755 78.8717 46.8159 78.1928 46.0537L77.446 46.7188L76.6993 47.3838C76.992 47.7125 77.1747 48.1677 77.1747 48.8409H78.1747ZM77.446 46.7188L78.1928 46.0537C77.5937 45.381 76.8264 44.8589 75.9235 44.4706L75.5284 45.3892L75.1333 46.3078C75.8157 46.6013 76.3268 46.9656 76.6993 47.3838L77.446 46.7188ZM75.5284 45.3892L75.9235 44.4706C75.0854 44.1101 74.1858 43.7973 73.2265 43.5308L72.9588 44.4943L72.6912 45.4578C73.5727 45.7027 74.3862 45.9865 75.1333 46.3078L75.5284 45.3892ZM72.9588 44.4943L73.2335 43.5328L70.0119 42.6123L69.7372 43.5739L69.4625 44.5354L72.6841 45.4558L72.9588 44.4943ZM69.7372 43.5739L70.0135 42.6128C68.0713 42.0544 66.6032 41.2766 65.554 40.3174L64.8793 41.0554L64.2045 41.7934C65.5417 43.016 67.3122 43.9172 69.4609 44.5349L69.7372 43.5739ZM64.8793 41.0554L65.554 40.3174C64.5883 39.4344 64.0895 38.2848 64.0895 36.7727H63.0895H62.0895C62.0895 38.7891 62.7839 40.4946 64.2045 41.7934L64.8793 41.0554ZM63.0895 36.7727H64.0895C64.0895 35.4986 64.4299 34.4303 65.0874 33.5253L64.2784 32.9375L63.4694 32.3497C62.5417 33.6265 62.0895 35.115 62.0895 36.7727H63.0895ZM64.2784 32.9375L65.0866 33.5264C65.7767 32.5794 66.708 31.8329 67.9099 31.2928L67.5 30.3807L67.0901 29.4685C65.5988 30.1387 64.3824 31.0968 63.4702 32.3486L64.2784 32.9375ZM67.5 30.3807L67.9125 31.2916C69.1229 30.7435 70.4926 30.4602 72.0384 30.4602V29.4602V28.4602C70.2432 28.4602 68.5873 28.7906 67.0875 29.4697L67.5 30.3807ZM72.0384 29.4602V30.4602C73.6053 30.4602 74.9587 30.7408 76.1197 31.276L76.5384 30.3679L76.957 29.4598C75.493 28.7848 73.8464 28.4602 72.0384 28.4602V29.4602ZM76.5384 30.3679L76.1245 31.2783C77.3002 31.8127 78.1984 32.5288 78.8529 33.4161L79.6577 32.8224L80.4624 32.2288C79.5828 31.0365 78.4015 30.1163 76.9522 29.4575L76.5384 30.3679ZM79.6577 32.8224L78.8561 33.4203C79.507 34.2929 79.8493 35.2751 79.8855 36.3959L80.8849 36.3636L81.8844 36.3314C81.8354 34.8102 81.3595 33.4315 80.4592 32.2245L79.6577 32.8224ZM80.8849 36.3636V35.3636H77.8168V36.3636V37.3636H80.8849V36.3636ZM97.2965 41.5028H98.2965V40.5028H97.2965V41.5028ZM97.2965 44.3153V45.3153H98.2965V44.3153H97.2965ZM85.842 44.3153H84.842V45.3153H85.842V44.3153ZM85.842 41.5028V40.5028H84.842V41.5028H85.842ZM97.2965 41.5028H96.2965V44.3153H97.2965H98.2965V41.5028H97.2965ZM97.2965 44.3153V43.3153H85.842V44.3153V45.3153H97.2965V44.3153ZM85.842 44.3153H86.842V41.5028H85.842H84.842V44.3153H85.842ZM85.842 41.5028V42.5028H97.2965V41.5028V40.5028H85.842V41.5028ZM98.9105 32.6307H97.9105V33.6307H98.9105V32.6307ZM98.9105 29.8182V28.8182H97.9105V29.8182H98.9105ZM118.547 29.8182H119.547V28.8182H118.547V29.8182ZM118.547 32.6307V33.6307H119.547V32.6307H118.547ZM110.314 32.6307V31.6307H109.314V32.6307H110.314ZM110.314 56V57H111.314V56H110.314ZM107.143 56H106.143V57H107.143V56ZM107.143 32.6307H108.143V31.6307H107.143V32.6307ZM98.9105 32.6307H99.9105V29.8182H98.9105H97.9105V32.6307H98.9105ZM98.9105 29.8182V30.8182H118.547V29.8182V28.8182H98.9105V29.8182ZM118.547 29.8182H117.547V32.6307H118.547H119.547V29.8182H118.547ZM118.547 32.6307V31.6307H110.314V32.6307V33.6307H118.547V32.6307ZM110.314 32.6307H109.314V56H110.314H111.314V32.6307H110.314ZM110.314 56V55H107.143V56V57H110.314V56ZM107.143 56H108.143V32.6307H107.143H106.143V56H107.143ZM107.143 32.6307V31.6307H98.9105V32.6307V33.6307H107.143V32.6307ZM123.44 56H122.44V57H123.44V56ZM123.44 29.8182V28.8182H122.44V29.8182H123.44ZM137.324 30.8665L136.854 31.7492L136.858 31.7515L137.324 30.8665ZM140.238 33.7173L139.351 34.1795V34.1795L140.238 33.7173ZM140.238 41.9503L139.354 41.483V41.483L140.238 41.9503ZM137.336 44.7628L137.795 45.6513L137.8 45.649L137.336 44.7628ZM125.179 45.7727H124.179V46.7727H125.179V45.7727ZM125.179 42.9091V41.9091H124.179V42.9091H125.179ZM135.61 42.2955L135.181 41.3923L135.178 41.3939L135.61 42.2955ZM137.477 40.5568L136.589 40.0977L136.587 40.1015L137.477 40.5568ZM135.598 33.2827L135.147 34.1754L135.154 34.1789L135.598 33.2827ZM126.61 32.6307V31.6307H125.61V32.6307H126.61ZM126.61 56V57H127.61V56H126.61ZM135.764 44.2386L136.641 43.7582L136.356 43.2386H135.764V44.2386ZM142.207 56V57H143.895L143.084 55.5195L142.207 56ZM138.525 56L137.645 56.4746L137.928 57H138.525V56ZM132.184 44.2386V43.2386H130.509L131.304 44.7132L132.184 44.2386ZM123.44 56H124.44V29.8182H123.44H122.44V56H123.44ZM123.44 29.8182V30.8182H132.287V29.8182V28.8182H123.44V29.8182ZM132.287 29.8182V30.8182C134.227 30.8182 135.73 31.1508 136.854 31.7491L137.324 30.8665L137.794 29.9838C136.292 29.1844 134.437 28.8182 132.287 28.8182V29.8182ZM137.324 30.8665L136.858 31.7515C138.007 32.3557 138.823 33.1656 139.351 34.1795L140.238 33.7173L141.125 33.2552C140.392 31.8486 139.265 30.7579 137.789 29.9814L137.324 30.8665ZM140.238 33.7173L139.351 34.1795C139.899 35.2293 140.184 36.4437 140.184 37.8466H141.184H142.184C142.184 36.1643 141.839 34.6258 141.125 33.2552L140.238 33.7173ZM141.184 37.8466H140.184C140.184 39.2498 139.898 40.4532 139.354 41.483L140.238 41.9503L141.122 42.4176C141.839 41.061 142.184 39.5286 142.184 37.8466H141.184ZM140.238 41.9503L139.354 41.483C138.827 42.4809 138.014 43.2797 136.873 43.8766L137.336 44.7628L137.8 45.649C139.266 44.8822 140.389 43.806 141.122 42.4176L140.238 41.9503ZM137.336 44.7628L136.878 43.8742C135.759 44.4517 134.264 44.7727 132.338 44.7727V45.7727V46.7727C134.468 46.7727 136.306 46.4204 137.795 45.6513L137.336 44.7628ZM132.338 45.7727V44.7727H125.179V45.7727V46.7727H132.338V45.7727ZM125.179 45.7727H126.179V42.9091H125.179H124.179V45.7727H125.179ZM125.179 42.9091V43.9091H132.235V42.9091V41.9091H125.179V42.9091ZM132.235 42.9091V43.9091C133.717 43.9091 135.007 43.6944 136.043 43.197L135.61 42.2955L135.178 41.3939C134.509 41.7147 133.549 41.9091 132.235 41.9091V42.9091ZM135.61 42.2955L136.04 43.1986C137.072 42.7081 137.871 41.9835 138.367 41.0121L137.477 40.5568L136.587 40.1015C136.316 40.6301 135.871 41.0646 135.181 41.3923L135.61 42.2955ZM137.477 40.5568L138.365 41.016C138.846 40.0868 139.065 39.0188 139.065 37.8466H138.065H137.065C137.065 38.771 136.892 39.5098 136.589 40.0977L137.477 40.5568ZM138.065 37.8466H139.065C139.065 36.6732 138.845 35.5984 138.371 34.6508L137.477 35.098L136.582 35.5452C136.893 36.1658 137.065 36.9234 137.065 37.8466H138.065ZM137.477 35.098L138.371 34.6508C137.873 33.6531 137.077 32.8994 136.041 32.3865L135.598 33.2827L135.154 34.1789C135.839 34.5182 136.297 34.9747 136.582 35.5452L137.477 35.098ZM135.598 33.2827L136.048 32.39C134.998 31.8596 133.688 31.6307 132.184 31.6307V32.6307V33.6307C133.51 33.6307 134.476 33.8364 135.147 34.1753L135.598 33.2827ZM132.184 32.6307V31.6307H126.61V32.6307V33.6307H132.184V32.6307ZM126.61 32.6307H125.61V56H126.61H127.61V32.6307H126.61ZM126.61 56V55H123.44V56V57H126.61V56ZM135.764 44.2386L134.887 44.7191L141.33 56.4805L142.207 56L143.084 55.5195L136.641 43.7582L135.764 44.2386ZM142.207 56V55H138.525V56V57H142.207V56ZM138.525 56L139.405 55.5254L133.065 43.7641L132.184 44.2386L131.304 44.7132L137.645 56.4746L138.525 56ZM132.184 44.2386V45.2386H135.764V44.2386V43.2386H132.184V44.2386ZM147.541 56V57H148.247L148.484 56.3345L147.541 56ZM144.217 56L143.279 55.6553L142.785 57H144.217V56ZM153.831 29.8182V28.8182H153.133L152.892 29.4735L153.831 29.8182ZM157.104 29.8182L158.042 29.4735L157.802 28.8182H157.104V29.8182ZM166.717 56V57H168.15L167.656 55.6553L166.717 56ZM163.393 56L162.451 56.3345L162.687 57H163.393V56ZM155.57 33.9602L156.512 33.6257L156.276 32.9602H155.57V33.9602ZM155.365 33.9602V32.9602H154.659L154.423 33.6257L155.365 33.9602ZM148.768 45.7727V44.7727H147.768V45.7727H148.768ZM162.166 45.7727H163.166V44.7727H162.166V45.7727ZM162.166 48.5852V49.5852H163.166V48.5852H162.166ZM148.768 48.5852H147.768V49.5852H148.768V48.5852ZM147.541 56V55H144.217V56V57H147.541V56ZM144.217 56L145.156 56.3447L154.77 30.1629L153.831 29.8182L152.892 29.4735L143.279 55.6553L144.217 56ZM153.831 29.8182V30.8182H157.104V29.8182V28.8182H153.831V29.8182ZM157.104 29.8182L156.165 30.1629L165.779 56.3447L166.717 56L167.656 55.6553L158.042 29.4735L157.104 29.8182ZM166.717 56V55H163.393V56V57H166.717V56ZM163.393 56L164.336 55.6655L156.512 33.6257L155.57 33.9602L154.627 34.2948L162.451 56.3345L163.393 56ZM155.57 33.9602V32.9602H155.365V33.9602V34.9602H155.57V33.9602ZM155.365 33.9602L154.423 33.6257L146.599 55.6655L147.541 56L148.484 56.3345L156.307 34.2948L155.365 33.9602ZM148.768 45.7727V46.7727H162.166V45.7727V44.7727H148.768V45.7727ZM162.166 45.7727H161.166V48.5852H162.166H163.166V45.7727H162.166ZM162.166 48.5852V47.5852H148.768V48.5852V49.5852H162.166V48.5852ZM148.768 48.5852H149.768V45.7727H148.768H147.768V48.5852H148.768ZM190.633 38V39H191.826L191.618 37.8255L190.633 38ZM187.463 38L186.483 38.2014L186.647 39H187.463V38ZM186.478 35.5966L185.646 36.1513L185.651 36.1583L186.478 35.5966ZM184.791 33.858L184.203 34.6667L184.209 34.671L184.215 34.6752L184.791 33.858ZM182.605 32.7841L182.319 33.7425V33.7425L182.605 32.7841ZM175.791 33.6278L175.262 32.7789L175.26 32.7805L175.791 33.6278ZM172.735 37.169L171.836 36.7317L171.834 36.7357L172.735 37.169ZM172.735 48.6491L171.834 49.0825L171.836 49.0865L172.735 48.6491ZM175.791 52.1903L175.26 53.0377L175.262 53.0393L175.791 52.1903ZM182.605 53.0341L182.319 52.0757V52.0757L182.605 53.0341ZM184.791 51.973L185.372 52.7867L185.374 52.7853L184.791 51.973ZM186.478 50.2216L185.648 49.6646L185.646 49.6669L186.478 50.2216ZM187.463 47.8182V46.8182H186.649L186.484 47.615L187.463 47.8182ZM190.633 47.8182L191.618 47.9938L191.827 46.8182H190.633V47.8182ZM189.329 51.4105L188.47 50.8981V50.8981L189.329 51.4105ZM186.977 54.108L187.593 54.8958L187.597 54.8923L186.977 54.108ZM183.819 55.7827L183.507 54.8326L183.505 54.8333L183.819 55.7827ZM174.142 54.7216L173.61 55.5687V55.5687L174.142 54.7216ZM170.038 50.0682L170.934 49.624V49.624L170.038 50.0682ZM183.819 30.0355L183.505 30.9849L183.507 30.9856L183.819 30.0355ZM186.977 31.723L186.357 32.5074L186.361 32.5108L186.977 31.723ZM189.329 34.4077L188.47 34.9201L188.472 34.9232L189.329 34.4077ZM190.633 38V37H187.463V38V39H190.633V38ZM187.463 38L188.442 37.7986C188.231 36.7726 187.856 35.846 187.306 35.0348L186.478 35.5966L185.651 36.1583C186.038 36.7278 186.319 37.4035 186.483 38.2014L187.463 38ZM186.478 35.5966L187.31 35.0419C186.783 34.2511 186.135 33.5819 185.367 33.0407L184.791 33.858L184.215 34.6752C184.777 35.0715 185.253 35.5614 185.646 36.1513L186.478 35.5966ZM184.791 33.858L185.379 33.0492C184.628 32.5033 183.797 32.0957 182.89 31.8257L182.605 32.7841L182.319 33.7425C183.015 33.9497 183.641 34.2581 184.203 34.6667L184.791 33.858ZM182.605 32.7841L182.89 31.8257C181.993 31.5584 181.061 31.4261 180.099 31.4261V32.4261V33.4261C180.876 33.4261 181.614 33.5325 182.319 33.7425L182.605 32.7841ZM180.099 32.4261V31.4261C178.336 31.4261 176.715 31.8744 175.262 32.7789L175.791 33.6278L176.319 34.4768C177.44 33.779 178.692 33.4261 180.099 33.4261V32.4261ZM175.791 33.6278L175.26 32.7805C173.8 33.6953 172.664 35.0293 171.836 36.7317L172.735 37.169L173.635 37.6064C174.324 36.1895 175.225 35.1627 176.322 34.4752L175.791 33.6278ZM172.735 37.169L171.834 36.7357C171.002 38.4657 170.61 40.5366 170.61 42.9091H171.61H172.61C172.61 40.7475 172.969 38.9917 173.637 37.6024L172.735 37.169ZM171.61 42.9091H170.61C170.61 45.2816 171.002 47.3525 171.834 49.0825L172.735 48.6491L173.637 48.2158C172.969 46.8265 172.61 45.0707 172.61 42.9091H171.61ZM172.735 48.6491L171.836 49.0865C172.664 50.7889 173.8 52.1229 175.26 53.0377L175.791 52.1903L176.322 51.343C175.225 50.6555 174.324 49.6287 173.635 48.2118L172.735 48.6491ZM175.791 52.1903L175.262 53.0393C176.715 53.9438 178.336 54.392 180.099 54.392V53.392V52.392C178.692 52.392 177.44 52.0392 176.319 51.3414L175.791 52.1903ZM180.099 53.392V54.392C181.061 54.392 181.993 54.2598 182.89 53.9925L182.605 53.0341L182.319 52.0757C181.614 52.2857 180.876 52.392 180.099 52.392V53.392ZM182.605 53.0341L182.89 53.9925C183.793 53.7235 184.623 53.3221 185.372 52.7867L184.791 51.973L184.21 51.1593C183.647 51.5615 183.018 51.8674 182.319 52.0757L182.605 53.0341ZM184.791 51.973L185.374 52.7853C186.138 52.2369 186.784 51.5654 187.31 50.7763L186.478 50.2216L185.646 49.6669C185.252 50.2585 184.773 50.7546 184.208 51.1607L184.791 51.973ZM186.478 50.2216L187.309 50.7786C187.856 49.9626 188.231 49.039 188.442 48.0214L187.463 47.8182L186.484 47.615C186.32 48.4042 186.038 49.0828 185.648 49.6646L186.478 50.2216ZM187.463 47.8182V48.8182H190.633V47.8182V46.8182H187.463V47.8182ZM190.633 47.8182L189.649 47.6426C189.429 48.8741 189.033 49.9553 188.47 50.8981L189.329 51.4105L190.188 51.923C190.887 50.7521 191.36 49.4384 191.618 47.9938L190.633 47.8182ZM189.329 51.4105L188.47 50.8981C187.9 51.8537 187.196 52.6598 186.357 53.3236L186.977 54.108L187.597 54.8923C188.633 54.0732 189.497 53.081 190.188 51.923L189.329 51.4105ZM186.977 54.108L186.361 53.3201C185.518 53.9795 184.569 54.484 183.507 54.8326L183.819 55.7827L184.131 56.7327C185.405 56.3143 186.561 55.7023 187.593 54.8958L186.977 54.108ZM183.819 55.7827L183.505 54.8333C182.455 55.1806 181.322 55.358 180.099 55.358V56.358V57.358C181.518 57.358 182.865 57.1517 184.133 56.732L183.819 55.7827ZM180.099 56.358V55.358C178.037 55.358 176.239 54.8568 174.673 53.8745L174.142 54.7216L173.61 55.5687C175.522 56.7682 177.695 57.358 180.099 57.358V56.358ZM174.142 54.7216L174.673 53.8745C173.105 52.8908 171.857 51.4861 170.934 49.624L170.038 50.0682L169.142 50.5124C170.213 52.673 171.701 54.3706 173.61 55.5687L174.142 54.7216ZM170.038 50.0682L170.934 49.624C170.019 47.7788 169.542 45.5511 169.542 42.9091H168.542H167.542C167.542 45.7898 168.063 48.3348 169.142 50.5124L170.038 50.0682ZM168.542 42.9091H169.542C169.542 40.267 170.019 38.0394 170.934 36.1942L170.038 35.75L169.142 35.3058C168.063 37.4834 167.542 40.0284 167.542 42.9091H168.542ZM170.038 35.75L170.934 36.1942C171.857 34.3321 173.105 32.9274 174.673 31.9437L174.142 31.0966L173.61 30.2495C171.701 31.4476 170.213 33.1451 169.142 35.3058L170.038 35.75ZM174.142 31.0966L174.673 31.9437C176.239 30.9614 178.037 30.4602 180.099 30.4602V29.4602V28.4602C177.695 28.4602 175.522 29.0499 173.61 30.2495L174.142 31.0966ZM180.099 29.4602V30.4602C181.322 30.4602 182.455 30.6375 183.505 30.9849L183.819 30.0355L184.133 29.0861C182.865 28.6664 181.518 28.4602 180.099 28.4602V29.4602ZM183.819 30.0355L183.507 30.9856C184.566 31.3335 185.514 31.8409 186.357 32.5073L186.977 31.723L187.597 30.9387C186.565 30.1222 185.407 29.5046 184.131 29.0854L183.819 30.0355ZM186.977 31.723L186.361 32.5108C187.198 33.1652 187.901 33.9656 188.47 34.9201L189.329 34.4077L190.188 33.8952C189.496 32.7361 188.631 31.7468 187.593 30.9352L186.977 31.723ZM189.329 34.4077L188.472 34.9232C189.033 35.8549 189.429 36.9343 189.649 38.1745L190.633 38L191.618 37.8255C191.36 36.3725 190.887 35.057 190.186 33.8921L189.329 34.4077Z" fill="#3B2CF2" mask="url(#path-3-outside-2_2_2)"/>
<line x1="41" y1="67" x2="208" y2="67" stroke="#3306E8" stroke-width="8"/>
<line x1="205" y1="48" x2="205" y2="70" stroke="#3306E8" stroke-width="6"/>
<circle cx="205" cy="44" r="5.5" fill="#3306E8" stroke="#3306E8"/>
<line x1="14" y1="63.5" x2="42" y2="63.5" stroke="#3306E8"/>
</svg>
