<svg width="88" height="88" viewBox="0 0 88 88" fill="none" xmlns="http://www.w3.org/2000/svg">
<mask id="path-1-outside-1_2_5" maskUnits="userSpaceOnUse" x="3" y="16" width="39" height="55" fill="black">
<rect fill="white" x="3" y="16" width="39" height="55"/>
<path d="M4.60227 70V65.3977L32.8295 23.2614H4.29545V17.6364H40.3977V22.2386L12.1705 64.375H40.7045V70H4.60227Z"/>
</mask>
<path d="M4.60227 70V65.3977L32.8295 23.2614H4.29545V17.6364H40.3977V22.2386L12.1705 64.375H40.7045V70H4.60227Z" fill="#3306E8"/>
<path d="M4.60227 70H3.60227V71H4.60227V70ZM4.60227 65.3977L3.77147 64.8412L3.60227 65.0937V65.3977H4.60227ZM32.8295 23.2614L33.6604 23.8179L34.7031 22.2614H32.8295V23.2614ZM4.29545 23.2614H3.29545V24.2614H4.29545V23.2614ZM4.29545 17.6364V16.6364H3.29545V17.6364H4.29545ZM40.3977 17.6364H41.3977V16.6364H40.3977V17.6364ZM40.3977 22.2386L41.2285 22.7952L41.3977 22.5426V22.2386H40.3977ZM12.1705 64.375L11.3396 63.8184L10.2969 65.375H12.1705V64.375ZM40.7045 64.375H41.7045V63.375H40.7045V64.375ZM40.7045 70V71H41.7045V70H40.7045ZM4.60227 70H5.60227V65.3977H4.60227H3.60227V70H4.60227ZM4.60227 65.3977L5.43308 65.9543L33.6604 23.8179L32.8295 23.2614L31.9987 22.7048L3.77147 64.8412L4.60227 65.3977ZM32.8295 23.2614V22.2614H4.29545V23.2614V24.2614H32.8295V23.2614ZM4.29545 23.2614H5.29545V17.6364H4.29545H3.29545V23.2614H4.29545ZM4.29545 17.6364V18.6364H40.3977V17.6364V16.6364H4.29545V17.6364ZM40.3977 17.6364H39.3977V22.2386H40.3977H41.3977V17.6364H40.3977ZM40.3977 22.2386L39.5669 21.6821L11.3396 63.8184L12.1705 64.375L13.0013 64.9316L41.2285 22.7952L40.3977 22.2386ZM12.1705 64.375V65.375H40.7045V64.375V63.375H12.1705V64.375ZM40.7045 64.375H39.7045V70H40.7045H41.7045V64.375H40.7045ZM40.7045 70V69H4.60227V70V71H40.7045V70Z" fill="#3306E8" mask="url(#path-1-outside-1_2_5)"/>
<line x1="41" y1="67" x2="79" y2="67" stroke="#3306E8" stroke-width="8"/>
<line x1="82" y1="49" x2="82" y2="71" stroke="#3306E8" stroke-width="6"/>
<circle cx="82" cy="46" r="5.5" fill="#3306E8" stroke="#3306E8"/>
<line x1="14" y1="63.5" x2="42" y2="63.5" stroke="#3306E8"/>
<path d="M40.0597 24.1712V16.8182H74.7031V24.1712H61.7891V59H52.9737V24.1712H40.0597Z" fill="#3306E8"/>
<line x1="4" y1="17" x2="74" y2="17" stroke="#3306E8" stroke-width="2"/>
</svg>
